<svg width="49" height="87" viewBox="0 0 49 87" fill="none" xmlns="http://www.w3.org/2000/svg">
<path d="M22.6625 0.0407735C22.0194 0.0951485 20.5647 0.346633 19.868 0.516555C17.862 1.01952 15.7259 2.01866 13.9803 3.26929C10.3283 5.87929 7.65624 10.1137 6.82171 14.6133C6.37764 17.0126 6.40061 19.643 6.88296 21.9607C7.8553 26.603 10.6039 30.7151 14.4626 33.2979C16.0169 34.331 17.4409 35.0039 19.1712 35.5137C20.1053 35.7923 21.5217 36.0914 21.8892 36.0914C22.027 36.0914 22.05 36.1322 22.05 36.4176C22.05 37.0022 21.7131 37.7906 21.1695 38.4567C20.6412 39.116 20.7484 39.3539 21.5753 39.3539C21.8586 39.3539 22.2184 39.3267 22.3792 39.2927C22.6472 39.2383 22.6625 39.2383 22.6625 39.3947C22.6625 39.7413 22.4175 40.9648 21.9428 43.0242C21.2384 46.0692 21.1772 46.4906 21.1772 48.0539C21.1772 49.1618 21.2001 49.488 21.338 50.025C21.7667 51.7378 22.4022 52.7369 23.7803 53.8992C24.9287 54.8712 25.9853 55.5169 28.7492 56.9578C31.383 58.324 32.5314 59.0512 33.6569 60.0708C34.3919 60.7301 34.8512 61.3418 35.548 62.5652C36.3901 64.0469 36.7423 65.0597 36.9873 66.7113C37.1022 67.459 37.1022 70.0758 36.9873 71.2312C36.7041 74.0859 36.6964 75.1394 36.9337 76.4308C37.263 78.164 38.0362 79.6662 39.2459 80.8828C40.203 81.8412 41.2289 83.486 41.6194 84.6551C41.7572 85.0833 41.8337 85.5115 41.8644 86.0756C41.9103 86.7349 41.9409 86.898 42.0481 86.9592C42.1553 87.0136 42.2166 87.0068 42.3161 86.9116C42.4998 86.7485 42.4922 85.7494 42.3008 84.9949C41.9409 83.5472 40.8308 81.6712 39.6287 80.475C38.5033 79.3535 37.7683 77.8854 37.485 76.1726C37.3319 75.2686 37.3319 73.4878 37.485 72.1828C37.6458 70.769 37.707 68.0435 37.5998 67.0648C37.3931 65.2228 36.995 63.9722 36.0839 62.3613C35.3642 61.0971 34.9125 60.4922 34.1162 59.7581C32.9525 58.6774 31.827 57.9637 28.9789 56.482C26.1767 55.0275 25.1125 54.3614 24.0483 53.4166C22.8616 52.3631 22.4481 51.7242 21.9964 50.2629C21.8509 49.7735 21.805 49.4201 21.7667 48.5229C21.6978 46.8169 21.782 46.2867 22.7314 42.1406C22.9381 41.223 23.1448 40.2035 23.1984 39.8637C23.2444 39.5306 23.298 39.2451 23.3133 39.2248C23.3286 39.2112 23.5812 39.2995 23.8645 39.4219C24.5076 39.6869 25.1048 39.7617 25.2886 39.5918C25.4876 39.4151 25.4494 39.218 25.1201 38.7898C24.7144 38.2596 24.5612 37.777 24.5689 36.9886C24.5689 36.6351 24.5919 36.3225 24.6301 36.2953C24.6608 36.2613 25.0742 36.2069 25.5336 36.1594C31.2834 35.6224 36.3595 32.2851 39.2 27.1535C40.2412 25.2912 40.8384 23.6531 41.2289 21.6005C42.4462 15.2046 40.2566 8.69319 35.4484 4.41116C32.8147 2.06624 29.8747 0.693273 26.3375 0.163117C25.6944 0.0611641 23.3286 -0.0136015 22.6625 0.0407735Z" fill="#004C4C"/></svg>
