<svg width="78" height="86" viewBox="0 0 78 86" fill="none" xmlns="http://www.w3.org/2000/svg">
    <path d="M33 2.4641C36.7128 0.320509 41.2872 0.320508 45 2.4641L71.1051 17.5359C74.8179 19.6795 77.1051 23.641 77.1051 27.9282V58.0718C77.1051 62.359 74.8179 66.3205 71.1051 68.4641L45 83.5359C41.2872 85.6795 36.7128 85.6795 33 83.5359L6.89488 68.4641C3.18207 66.3205 0.894882 62.359 0.894882 58.0718V27.9282C0.894882 23.641 3.18207 19.6795 6.89488 17.5359L33 2.4641Z" stroke="#1FFFBC"/>
    <path d="M43.5 29.5H49.5C50.2956 29.5 51.0587 29.8161 51.6213 30.3787C52.1839 30.9413 52.5 31.7044 52.5 32.5V53.5C52.5 54.2956 52.1839 55.0587 51.6213 55.6213C51.0587 56.1839 50.2956 56.5 49.5 56.5H43.5" stroke="#00B881" stroke-width="2.3" stroke-linecap="round" stroke-linejoin="round"/>
    <path d="M36 50.5L43.5 43L36 35.5" stroke="#00B881" stroke-width="2.3" stroke-linecap="round" stroke-linejoin="round"/>
    <path d="M43.5 43H25.5" stroke="#00B881" stroke-width="2.3" stroke-linecap="round" stroke-linejoin="round"/>
</svg>
