<svg width="88" height="88" viewBox="0 0 88 88" fill="none" xmlns="http://www.w3.org/2000/svg">
    <path d="M49.75 3.89711L75.8551 18.9689C79.4132 21.0232 81.6051 24.8196 81.6051 28.9282V59.0718C81.6051 63.1804 79.4132 66.9768 75.8551 69.0311L49.75 84.1029C46.1919 86.1572 41.8081 86.1572 38.25 84.1029L12.1449 69.0311C8.58677 66.9768 6.39488 63.1804 6.39488 59.0718V28.9282C6.39488 24.8197 8.58677 21.0232 12.1449 18.9689L38.25 3.89711C41.8081 1.84284 46.1919 1.84284 49.75 3.89711Z" fill="white" stroke="#E0063A"/>
    <path d="M48.5 30.5H54.5C55.2956 30.5 56.0587 30.8161 56.6213 31.3787C57.1839 31.9413 57.5 32.7044 57.5 33.5V54.5C57.5 55.2956 57.1839 56.0587 56.6213 56.6213C56.0587 57.1839 55.2956 57.5 54.5 57.5H48.5" stroke="#FF0000" stroke-width="2.3" stroke-linecap="round" stroke-linejoin="round"/>
    <path d="M41 51.5L48.5 44L41 36.5" stroke="#FF0000" stroke-width="2.3" stroke-linecap="round" stroke-linejoin="round"/>
    <path d="M48.5 44H30.5" stroke="#FF0000" stroke-width="2.3" stroke-linecap="round" stroke-linejoin="round"/>
    <circle cx="63" cy="74" r="12" fill="#CC0000"/>
    <path d="M66 71L60 77" stroke="white" stroke-width="1.4" stroke-linecap="round" stroke-linejoin="round"/>
    <path d="M60 71L66 77" stroke="white" stroke-width="1.4" stroke-linecap="round" stroke-linejoin="round"/>
</svg>

