<svg width="73" height="70" viewBox="0 0 73 70" fill="none" xmlns="http://www.w3.org/2000/svg">
    <path d="M36.4999 68.1804C55.6106 68.1804 71.1029 53.3247 71.1029 34.9993C71.1029 16.6738 55.6106 1.81812 36.4999 1.81812C17.3891 1.81812 1.89679 16.6738 1.89679 34.9993C1.89679 53.3247 17.3891 68.1804 36.4999 68.1804Z" fill="white"/>
    <path d="M36.4999 0C16.3737 0 0 15.7009 0 35C0 54.2991 16.3737 70 36.4999 70C56.626 70 73 54.2989 73 35C73 15.7011 56.626 0 36.4999 0ZM36.4999 66.3623C18.4658 66.3623 3.79361 52.2933 3.79361 35C3.79361 17.7067 18.4658 3.63772 36.4999 3.63772C54.534 3.63772 69.2061 17.7067 69.2061 35C69.2061 52.2933 54.5342 66.3623 36.4999 66.3623Z" fill="#414042"/>
    <path d="M36.4999 11.4472C22.9564 11.4472 11.9382 22.0126 11.9382 34.9995C11.9382 47.9864 22.9564 58.5518 36.4999 58.5518C42.5251 58.5518 48.3205 56.439 52.8182 52.6022C53.6012 51.9345 53.671 50.7848 52.9748 50.0344C52.2788 49.2841 51.08 49.2164 50.297 49.8843C46.4945 53.1277 41.5944 54.9141 36.4996 54.9141C25.0482 54.9141 15.7316 45.9806 15.7316 34.9995C15.7316 24.0186 25.0482 15.0849 36.4996 15.0849C47.951 15.0849 57.2676 24.0184 57.2676 34.9995C57.2676 37.8941 56.6348 40.6845 55.3867 43.2928C54.95 44.2058 55.3678 45.2855 56.32 45.7043C57.2722 46.1236 58.3984 45.7225 58.8349 44.8094C60.3119 41.7217 61.061 38.4211 61.061 34.9992C61.0617 22.0126 50.0433 11.4472 36.4999 11.4472Z" fill="#414042"/>
    <rect x="0.5" y="0.5" width="72" height="69" stroke="white"/>
</svg>
